<?xml version="1.0" encoding="UTF-8" standalone="no"?>
<svg
   xmlns:dc="http://purl.org/dc/elements/1.1/"
   xmlns:cc="http://creativecommons.org/ns#"
   xmlns:rdf="http://www.w3.org/1999/02/22-rdf-syntax-ns#"
   xmlns:svg="http://www.w3.org/2000/svg"
   xmlns="http://www.w3.org/2000/svg"
   viewBox="0 0 143.96558 143.96627"
   height="143.96626"
   width="143.96558"
   xml:space="preserve"
   id="svg2"
   version="1.1"><metadata
     id="metadata8"><rdf:RDF><cc:Work
         rdf:about=""><dc:format>image/svg+xml</dc:format><dc:type
           rdf:resource="http://purl.org/dc/dcmitype/StillImage" /><dc:title></dc:title></cc:Work></rdf:RDF></metadata><defs
     id="defs6"><clipPath
       id="clipPath26"
       clipPathUnits="userSpaceOnUse"><path
         id="path24"
         d="M 0,500 H 500 V 0 H 0 Z" /></clipPath><clipPath
       id="clipPath122"
       clipPathUnits="userSpaceOnUse"><path
         id="path120"
         d="M 0,500 H 500 V 0 H 0 Z" /></clipPath></defs><g
     transform="matrix(1.3333333,0,0,-1.3333333,403.64928,577.90197)"
     id="g10"><path
       id="path86"
       style="fill:#ccdeed;fill-opacity:1;fill-rule:nonzero;stroke:none;stroke-width:0.99999994"
       d="m -194.76297,325.45249 h -107.974 v 107.974 h 107.974 z" /><g
       transform="translate(-260.20527,372.18379)"
       id="g88"><path
         id="path90"
         style="fill:#63a3d7;fill-opacity:1;fill-rule:nonzero;stroke:none"
         d="m 0,0 c 0,0 -3.043,-4.117 -3.998,-4.893 -0.954,-0.775 -22.7,-7.656 -26.152,-12.293 -4.293,-5.762 -6.055,-18.543 -6.975,-29.546 h 97.162 c -0.921,11.003 -2.683,23.784 -6.975,29.546 C 49.609,-12.549 27.864,-5.668 26.909,-4.893 25.954,-4.117 22.911,0 22.911,0 h -0.208 v 4.51 c 1.306,1.64 2.315,3.311 2.962,4.649 0.433,0.897 0.805,2.812 1.122,5.253 3.583,1.644 4.017,7.372 4.167,10.582 0.064,1.366 -0.496,1.65 -1.195,1.495 0.125,0.681 0.249,1.364 0.37,2.04 0.832,2.981 2.08,5.846 3.738,8.459 -0.415,-0.149 -0.83,-0.297 -1.246,-0.446 0.665,0.618 1.33,1.237 1.995,1.855 -0.42,0.034 -0.84,0.069 -1.261,0.103 1.107,0.83 2.213,1.661 3.32,2.491 -0.901,-0.051 -1.816,0.2 -2.564,0.704 0.965,0.539 1.93,1.079 2.895,1.618 -3.799,-0.323 -7.493,1.334 -10.718,3.368 -3.225,2.033 -6.208,4.491 -9.675,6.076 -2.383,1.088 -5.103,1.693 -7.668,1.401 -9.005,0.761 -10.418,-8.695 -10.418,-8.695 -10.855,0 -6.107,-15.96 -5.167,-19.006 -0.758,0.217 -1.392,-0.015 -1.323,-1.463 0.15,-3.212 0.584,-8.943 4.171,-10.584 0.317,-2.44 0.69,-4.355 1.124,-5.251 0.632,-1.31 1.611,-2.938 2.877,-4.543 L 0.209,0 Z" /></g><g
       transform="translate(-194.76278,386.69119)"
       id="g92"><path
         id="path94"
         style="fill:#c2d4e1;fill-opacity:1;fill-rule:nonzero;stroke:none"
         d="m 0,0 -28.673,28.673 c -0.886,-0.495 -1.773,-0.99 -2.659,-1.485 0.749,-0.504 1.663,-0.755 2.564,-0.704 -1.106,-0.831 -2.213,-1.661 -3.319,-2.491 0.42,-0.035 0.84,-0.069 1.261,-0.104 -0.665,-0.618 -1.33,-1.236 -1.995,-1.854 0.415,0.148 0.831,0.297 1.246,0.445 -1.659,-2.613 -2.907,-5.477 -3.739,-8.458 -0.121,-0.676 -0.245,-1.359 -0.37,-2.04 0.7,0.154 1.26,-0.13 1.196,-1.495 -0.151,-3.211 -0.585,-8.938 -4.167,-10.582 -0.318,-2.441 -0.69,-4.357 -1.123,-5.254 -0.646,-1.338 -1.655,-3.009 -2.962,-4.649 v -4.509 h 0.209 c 0,0 3.043,-4.117 3.998,-4.893 0.954,-0.776 22.7,-7.657 26.152,-12.293 4.293,-5.763 6.055,-18.543 6.975,-29.546 H 0 Z" /></g></g></svg>