<svg xmlns="http://www.w3.org/2000/svg" width="36" height="36" fill="none" viewBox="0 0 36 36">
    <path fill="#fff" d="M24.93 33H11.07c-4.036 0-7.32-3.253-7.32-7.253v-7.994c0-4 3.284-7.253 7.32-7.253h13.86c4.036 0 7.32 3.253 7.32 7.253v7.994c0 4-3.284 7.253-7.32 7.253z" opacity=".4"/>
    <path fill="#fff" d="M23.633 15c-.617 0-1.118-.486-1.118-1.084v-4.38c0-2.41-2.02-4.369-4.502-4.369-1.142 0-2.342.445-3.195 1.265-.855.822-1.329 1.916-1.333 3.083v4.401c0 .598-.5 1.084-1.118 1.084-.616 0-1.117-.486-1.117-1.084v-4.38c.007-1.776.717-3.415 1.995-4.642 1.277-1.23 2.927-1.846 4.773-1.894 3.71 0 6.732 2.932 6.732 6.535v4.381c0 .598-.5 1.084-1.117 1.084z"/>
</svg>
