<svg xmlns="http://www.w3.org/2000/svg" width="36" height="36" fill="none" viewBox="0 0 36 36">
    <path fill="#fff" d="M11.146 28.603c1.245 0 2.265 1.02 2.265 2.28 0 1.245-1.02 2.265-2.265 2.265-1.26 0-2.28-1.02-2.28-2.265 0-1.26 1.02-2.28 2.28-2.28zm16.875 0c1.245 0 2.265 1.02 2.265 2.28 0 1.245-1.02 2.265-2.265 2.265-1.26 0-2.28-1.02-2.28-2.265 0-1.26 1.02-2.28 2.28-2.28z" opacity=".4"/>
    <path fill="#fff" d="M4.168 3.75l.153.012 3.578.54c.51.092.885.51.93 1.02l.285 3.36c.045.482.435.842.915.842h20.257c.915 0 1.515.315 2.115 1.005.6.69.705 1.68.57 2.578l-1.425 9.84c-.27 1.892-1.89 3.285-3.795 3.285H11.386c-1.995 0-3.645-1.53-3.81-3.508L6.196 6.372l-2.265-.39c-.6-.105-1.02-.69-.915-1.29.105-.615.69-1.02 1.305-.93l-.153-.012zm21.183 11.322h-4.155c-.63 0-1.125.495-1.125 1.125 0 .615.495 1.125 1.125 1.125h4.155c.63 0 1.125-.51 1.125-1.125 0-.63-.495-1.125-1.125-1.125z"/>
</svg>
