<svg xmlns="http://www.w3.org/2000/svg" width="36" height="36" fill="none" viewBox="0 0 36 36">
    <path fill="#fff" d="M17.999 32.997c-1.154 0-2.306-.438-3.186-1.312l-1.095-1.095c-.425-.423-.993-.657-1.596-.659h-1.54c-2.49 0-4.517-2.026-4.517-4.516v-1.542c-.002-.602-.236-1.17-.66-1.598L4.328 21.2c-1.764-1.754-1.772-4.62-.017-6.386l1.095-1.096c.423-.425.657-.993.659-1.596v-1.54c0-2.49 2.026-4.517 4.516-4.517h1.542c.602 0 1.169-.234 1.596-.662l1.079-1.075c1.753-1.764 4.618-1.773 6.385-.017l1.095 1.095c.426.425.993.659 1.595.659h1.542c2.49 0 4.516 2.026 4.516 4.518v1.54c.002.602.236 1.17.66 1.598l1.077 1.077c.854.849 1.326 1.98 1.33 3.187.004 1.2-.458 2.33-1.3 3.183-.015.015-.028.032-.043.045l-1.065 1.065c-.423.425-.657.993-.659 1.596v1.54c0 2.49-2.026 4.517-4.516 4.517h-1.542c-.602.002-1.17.236-1.596.66l-1.079 1.077c-.879.885-2.04 1.33-3.2 1.33z" opacity=".4"/>
    <path fill="#fff" d="M20.913 20.937c.384-.384.96-.495 1.446-.291.142.048.301.15.433.28.24.24.37.569.37.929 0 .358-.13.688-.368.927-.269.25-.596.385-.929.385-.35 0-.666-.127-.937-.38-.119-.118-.209-.254-.284-.422-.08-.183-.091-.378-.091-.51s.01-.329.091-.512c.077-.17.19-.313.269-.406zm.017-7.722c.512-.51 1.344-.51 1.856 0 .511.513.511 1.344 0 1.857l-7.71 7.71c-.248.247-.576.384-.927.384-.351 0-.68-.137-.929-.384-.511-.513-.511-1.346 0-1.857l7.71-7.71zm-7.27-.284c.453-.207 1.055-.085 1.412.29.127.127.225.267.29.412.07.156.106.333.106.512 0 .357-.143.688-.404.931-.247.248-.568.381-.924.381-.333 0-.66-.136-.922-.382-.25-.248-.39-.587-.39-.93 0-.327.138-.663.38-.923.134-.135.293-.237.452-.29z"/>
</svg>
