<svg xmlns="http://www.w3.org/2000/svg" width="115" height="115" fill="none" viewBox="0 0 115 115">
    <path fill="url(#paint0_linear)" d="M92.505 8.52c-8.41-1.867-30.489-3.15-38.632-5.932-20.147-6.86-40.155-.216-44.462 21.52-1.524 7.749-3.443 25.115-6.187 32.508-7.622 20.39-1.93 42.404 19.208 48.273 7.419 2.071 27.313 4.802 34.744 6.809 21.24 5.704 42.76 2.63 46.393-15.383 1.55-7.737 4.294-33.563 7.038-40.956 7.622-20.352 4.662-41.795-18.102-46.838z"/>
    <path fill="url(#paint1_linear)" d="M30.867 39.276v36.84h56.518l10.811-28.354-67.329-8.486z"/>
    <path fill="url(#paint2_linear)" d="M61.775 43.176L30.867 64.81v11.306H45.68l42.315-29.637-26.22-3.303z"/>
    <path fill="url(#paint3_linear)" d="M56.91 62.142H41.665c-1.403 0-2.54 1.138-2.54 2.54v8.893c0 1.403 1.137 2.541 2.54 2.541H56.91c1.403 0 2.54-1.138 2.54-2.54v-8.893c0-1.403-1.137-2.54-2.54-2.54z"/>
    <path fill="url(#paint4_linear)" d="M59.45 67.224H39.125v3.81H59.45v-3.81z"/>
    <path fill="url(#paint5_linear)" d="M79.776 55.79H61.99c-1.403 0-2.54 1.138-2.54 2.541v15.244c0 1.403 1.137 2.541 2.54 2.541h17.785c1.403 0 2.54-1.138 2.54-2.54V58.33c0-1.403-1.137-2.54-2.54-2.54z"/>
    <path fill="url(#paint6_linear)" d="M77.235 59.601H64.532c-.702 0-1.27.57-1.27 1.27v10.164c0 .701.568 1.27 1.27 1.27h12.703c.702 0 1.27-.569 1.27-1.27V60.872c0-.702-.568-1.27-1.27-1.27z"/>
    <path fill="url(#paint7_linear)" d="M79.14 88.82H37.22v2.54h41.92v-2.54z"/>
    <path fill="url(#paint8_linear)" d="M99.288 47.165c-.098-.165-.232-.306-.393-.412-.16-.105-.343-.173-.534-.198l-66.274-8.359c-.274-3.385-1.771-6.554-4.212-8.916-2.441-2.361-5.658-3.753-9.05-3.915-.087-.001-.172.014-.252.046-.08.032-.153.08-.215.14-.061.06-.11.132-.143.212-.034.079-.051.164-.051.25v1.27c0 .164.064.32.178.436.114.117.269.184.432.187 2.925.157 5.679 1.43 7.693 3.557 2.014 2.127 3.134 4.947 3.13 7.876v44.463h2.54V77.45h55.248c.26 0 .513-.078.727-.226.214-.147.377-.357.467-.6l10.798-28.341c.072-.181.101-.376.086-.57-.015-.194-.075-.381-.174-.548zm-12.78 27.732h-54.37V40.71l64.318 8.118-9.947 26.068z"/>
    <path fill="url(#paint9_linear)" d="M75.965 16.41H48.017c-1.01 0-1.98.401-2.695 1.116-.714.715-1.116 1.684-1.116 2.695v40.65L56.91 51.98h19.055c1.01 0 1.98-.401 2.695-1.116.714-.715 1.116-1.684 1.116-2.695V20.221c0-1.011-.402-1.98-1.116-2.695-.715-.715-1.684-1.116-2.695-1.116z"/>
    <path fill="url(#paint10_linear)" d="M44.206 51.98v3.81l35.57-24.911v-3.811l-35.57 24.911z"/>
    <path fill="url(#paint11_linear)" d="M75.965 16.41h-4.548l-27.21 19.055v8.892L79.7 19.497c-.168-.868-.633-1.65-1.314-2.214-.681-.563-1.537-.872-2.421-.873z"/>
    <path fill="url(#paint12_linear)" d="M50.558 21.491h-.635c-.169 0-.33.067-.45.186-.119.12-.185.28-.185.45v1.27c0 .168.066.33.186.449.119.119.28.186.449.186h.635c5.727 0 11.22 2.275 15.27 6.325 4.05 4.05 6.326 9.543 6.326 15.27v.636c0 .168.067.33.186.449s.28.186.449.186h1.27c.168-.003.327-.071.446-.19.118-.118.186-.278.19-.445v-.635c0-6.402-2.543-12.541-7.07-17.068-4.526-4.526-10.666-7.069-17.067-7.069z"/>
    <path fill="url(#paint13_linear)" d="M50.558 29.38h-.635c-.169 0-.33.067-.45.186-.119.119-.185.28-.185.449v1.27c0 .169.066.33.186.45.119.119.28.186.449.186h.635c3.628 0 7.108 1.441 9.674 4.007s4.008 6.046 4.008 9.674v.635c0 .169.066.33.186.45.119.119.28.186.449.186h1.27c.168-.004.327-.072.446-.19.118-.118.186-.278.19-.446v-.635c0-4.302-1.71-8.428-4.752-11.47-3.043-3.043-7.169-4.752-11.471-4.752z"/>
    <path fill="url(#paint14_linear)" d="M50.558 37.002h-.635c-.169 0-.33.067-.45.186-.119.12-.185.28-.185.45v1.27c0 .168.066.33.186.449.119.119.28.186.449.186h.635c.802 0 1.597.158 2.338.465.742.307 1.415.757 1.983 1.324.567.568 1.017 1.241 1.324 1.983.307.741.465 1.536.465 2.338v.635c0 .169.067.33.186.45.12.118.28.185.45.185h1.27c.168 0 .33-.067.449-.186s.186-.28.186-.449v-.635c0-2.294-.912-4.495-2.534-6.117-1.622-1.623-3.823-2.534-6.117-2.534z"/>
    <path fill="url(#paint15_linear)" d="M50.558 46.898c.701 0 1.27-.569 1.27-1.27 0-.702-.569-1.27-1.27-1.27-.702 0-1.27.568-1.27 1.27 0 .701.568 1.27 1.27 1.27z"/>
    <path fill="url(#paint16_linear)" d="M85.493 97.712c4.209 0 7.622-3.413 7.622-7.622 0-4.21-3.413-7.622-7.622-7.622-4.21 0-7.623 3.412-7.623 7.622s3.413 7.622 7.623 7.622z"/>
    <path fill="url(#paint17_linear)" d="M85.492 93.9c2.105 0 3.811-1.705 3.811-3.81s-1.706-3.811-3.81-3.811c-2.105 0-3.812 1.706-3.812 3.81 0 2.106 1.707 3.812 3.811 3.812z"/>
    <path fill="url(#paint18_linear)" d="M30.867 97.712c4.21 0 7.622-3.413 7.622-7.622 0-4.21-3.412-7.622-7.622-7.622s-7.622 3.412-7.622 7.622 3.413 7.622 7.622 7.622z"/>
    <path fill="url(#paint19_linear)" d="M30.867 93.9c2.105 0 3.811-1.705 3.811-3.81s-1.706-3.811-3.81-3.811c-2.105 0-3.812 1.706-3.812 3.81 0 2.106 1.707 3.812 3.811 3.812z"/>
    <path fill="#409EFF" d="M96.926 38.628H95.02v-1.906c0-.168-.067-.33-.186-.449-.12-.119-.28-.186-.45-.186-.168 0-.33.067-.448.186-.12.12-.186.281-.186.45v1.905h-1.906c-.168 0-.33.067-.449.186-.12.12-.186.28-.186.45 0 .168.067.33.186.448.12.12.28.186.45.186h1.905v1.906c0 .168.067.33.186.449.119.12.28.186.449.186.168 0 .33-.067.449-.186.12-.12.186-.28.186-.45v-1.905h1.906c.168 0 .33-.067.449-.186s.186-.28.186-.449c0-.168-.067-.33-.186-.449-.12-.12-.281-.186-.45-.186zM89.303 24.654h-1.905V22.75c0-.169-.067-.33-.186-.45-.12-.119-.28-.186-.45-.186-.168 0-.33.067-.448.186-.12.12-.186.281-.186.45v1.905h-1.906c-.168 0-.33.067-.449.186-.12.12-.186.28-.186.45 0 .168.067.33.186.448.12.12.28.186.45.186h1.905v1.906c0 .169.067.33.186.45.119.118.28.185.449.185.168 0 .33-.067.449-.186s.186-.28.186-.449v-1.905h1.906c.168 0 .33-.067.449-.187.119-.119.186-.28.186-.449 0-.168-.067-.33-.186-.449-.12-.119-.281-.186-.45-.186zM41.03 28.465h-1.905V26.56c0-.169-.067-.33-.186-.45-.12-.119-.281-.186-.45-.186-.168 0-.33.067-.449.186-.119.12-.186.281-.186.45v1.905H35.95c-.169 0-.33.067-.45.186-.119.12-.185.28-.185.45 0 .168.066.33.186.448.119.12.28.186.449.186h1.905v1.906c0 .169.067.33.186.45.12.118.281.185.45.185.168 0 .33-.067.449-.186s.186-.28.186-.449v-1.905h1.905c.169 0 .33-.067.45-.187.118-.119.185-.28.185-.449 0-.168-.067-.33-.186-.449s-.28-.186-.449-.186zM25.773 48.79h-1.905v-1.905c0-.168-.067-.33-.186-.449-.12-.119-.28-.186-.45-.186-.167.003-.326.071-.445.19-.118.118-.186.278-.19.445v1.906h-1.905c-.168.003-.327.071-.446.19-.118.118-.186.277-.19.445 0 .168.068.33.187.45.119.118.28.185.449.185h1.905v1.906c0 .168.067.33.186.449.12.119.281.186.45.186.168 0 .33-.067.449-.186.119-.12.186-.28.186-.45v-1.905h1.905c.169 0 .33-.067.45-.186.119-.119.186-.28.186-.449 0-.169-.067-.33-.186-.45-.12-.118-.281-.185-.45-.185zM57.545 81.833h-1.906v-1.906c0-.168-.067-.33-.186-.45-.119-.118-.28-.185-.449-.185-.168 0-.33.067-.45.186-.118.119-.185.28-.185.45v1.905h-1.906c-.168 0-.33.067-.449.186s-.186.28-.186.449c0 .168.067.33.186.449.12.119.28.186.45.186h1.905v1.906c0 .168.067.33.186.449s.28.186.449.186c.167-.004.327-.072.446-.19.118-.118.186-.278.19-.445v-1.906h1.905c.167-.003.327-.071.445-.19.119-.118.187-.278.19-.445 0-.169-.067-.33-.186-.45-.12-.118-.28-.185-.45-.185z"/>
    <defs>
        <linearGradient id="paint0_linear" x1="42787.7" x2="53081.1" y1="48104" y2="48104" gradientUnits="userSpaceOnUse">
            <stop stop-color="#F2F8FC"/>
            <stop offset="1" stop-color="#EFF8FF"/>
        </linearGradient>
        <linearGradient id="paint1_linear" x1="30.867" x2="98.196" y1="57.696" y2="57.696" gradientUnits="userSpaceOnUse">
            <stop stop-color="#8EA1B2"/>
            <stop offset=".07" stop-color="#94A8B6"/>
            <stop offset=".4" stop-color="#A9B9C4"/>
            <stop offset=".71" stop-color="#B7C1CD"/>
            <stop offset="1" stop-color="#BBC8D0"/>
        </linearGradient>
        <linearGradient id="paint2_linear" x1="30.867" x2="87.995" y1="59.639" y2="59.639" gradientUnits="userSpaceOnUse">
            <stop stop-color="#8EA5B2"/>
            <stop offset=".52" stop-color="#90A2B3"/>
            <stop offset=".71" stop-color="#97A6B8"/>
            <stop offset=".85" stop-color="#A3B6C0"/>
            <stop offset=".96" stop-color="#B4C0CB"/>
            <stop offset="1" stop-color="#BBC6D0"/>
        </linearGradient>
        <linearGradient id="paint3_linear" x1="3112.36" x2="3437.56" y1="4176.88" y2="4176.88" gradientUnits="userSpaceOnUse">
            <stop stop-color="#84C1FA"/>
            <stop offset="1" stop-color="#99D2FC"/>
        </linearGradient>
        <linearGradient id="paint4_linear" x1="3112.36" x2="3437.56" y1="1189.43" y2="1189.43" gradientUnits="userSpaceOnUse">
            <stop stop-color="#69BBE9"/>
            <stop offset="1" stop-color="#91D4F0"/>
        </linearGradient>
        <linearGradient id="paint5_linear" x1="3882.7" x2="4294.29" y1="5990.05" y2="5990.05" gradientUnits="userSpaceOnUse">
            <stop stop-color="#48A7FF"/>
            <stop offset="1" stop-color="#528ED5"/>
        </linearGradient>
        <linearGradient id="paint6_linear" x1="2657.82" x2="2840.75" y1="3768.52" y2="3768.52" gradientUnits="userSpaceOnUse">
            <stop stop-color="#7DC4F7"/>
            <stop offset="1" stop-color="#8BB8FB"/>
        </linearGradient>
        <linearGradient id="paint7_linear" x1="6312.88" x2="7696.29" y1="878.875" y2="878.875" gradientUnits="userSpaceOnUse">
            <stop stop-color="#406078"/>
            <stop offset="1" stop-color="#637E9E"/>
        </linearGradient>
        <linearGradient id="paint8_linear" x1="31593.8" x2="36797.2" y1="24497.9" y2="24497.9" gradientUnits="userSpaceOnUse">
            <stop stop-color="#405D78"/>
            <stop offset="1" stop-color="#63909E"/>
        </linearGradient>
        <linearGradient id="paint9_linear" x1="14587.6" x2="15583.6" y1="18081" y2="18081" gradientUnits="userSpaceOnUse">
            <stop stop-color="#184363"/>
            <stop offset="1" stop-color="#4C6882"/>
        </linearGradient>
        <linearGradient id="paint10_linear" x1="44.206" x2="79.852" y1="41.423" y2="41.423" gradientUnits="userSpaceOnUse">
            <stop stop-color="#183663"/>
            <stop offset=".1" stop-color="#273567"/>
            <stop offset=".25" stop-color="#374C6B"/>
            <stop offset=".43" stop-color="#435E77"/>
            <stop offset=".64" stop-color="#4A5F7F"/>
            <stop offset="1" stop-color="#4C6282"/>
        </linearGradient>
        <linearGradient id="paint11_linear" x1="14556.5" x2="15550.3" y1="11189.6" y2="11189.6" gradientUnits="userSpaceOnUse">
            <stop stop-color="#184363"/>
            <stop offset=".1" stop-color="#274167"/>
            <stop offset=".25" stop-color="#374C6B"/>
            <stop offset=".43" stop-color="#435B77"/>
            <stop offset=".64" stop-color="#4A5F7F"/>
            <stop offset="1" stop-color="#4C6882"/>
        </linearGradient>
        <linearGradient id="paint12_linear" x1="10539.1" x2="11047.2" y1="10255.2" y2="10255.2" gradientUnits="userSpaceOnUse">
            <stop stop-color="#F2F8FC"/>
            <stop offset="1" stop-color="#FFEFF6"/>
            <stop offset="1" stop-color="#EFF5FF"/>
        </linearGradient>
        <linearGradient id="paint13_linear" x1="7271.52" x2="7512.39" y1="7129.67" y2="7129.67" gradientUnits="userSpaceOnUse">
            <stop stop-color="#F2F9FC"/>
            <stop offset="1" stop-color="#EFF9FF"/>
        </linearGradient>
        <linearGradient id="paint14_linear" x1="4145.55" x2="4223.04" y1="4093.68" y2="4093.68" gradientUnits="userSpaceOnUse">
            <stop stop-color="#F2F8FC"/>
            <stop offset="1" stop-color="#EFF8FF"/>
        </linearGradient>
        <linearGradient id="paint15_linear" x1="453.767" x2="458.848" y1="745.489" y2="745.489" gradientUnits="userSpaceOnUse">
            <stop stop-color="#F2F9FC"/>
            <stop offset="1" stop-color="#EFF9FF"/>
        </linearGradient>
        <linearGradient id="paint16_linear" x1="2847.74" x2="3030.67" y1="4822.8" y2="4822.8" gradientUnits="userSpaceOnUse">
            <stop stop-color="#48A7FF"/>
            <stop offset="1" stop-color="#79C2F7"/>
        </linearGradient>
        <linearGradient id="paint17_linear" x1="1489.48" x2="1535.22" y1="2456.45" y2="2456.45" gradientUnits="userSpaceOnUse">
            <stop stop-color="#405678"/>
            <stop offset="1" stop-color="#63829E"/>
        </linearGradient>
        <linearGradient id="paint18_linear" x1="2137.62" x2="2320.55" y1="4822.8" y2="4822.8" gradientUnits="userSpaceOnUse">
            <stop stop-color="#48A7FF"/>
            <stop offset=".964" stop-color="#7BD1F7"/>
            <stop offset="1" stop-color="#B879F7"/>
        </linearGradient>
        <linearGradient id="paint19_linear" x1="1107.11" x2="1152.84" y1="2456.45" y2="2456.45" gradientUnits="userSpaceOnUse">
            <stop stop-color="#405A78"/>
            <stop offset="1" stop-color="#63859E"/>
        </linearGradient>
    </defs>
</svg>
