<svg xmlns="http://www.w3.org/2000/svg" width="115" height="115" fill="none" viewBox="0 0 115 115">
    <path fill="url(#paint0_linear)" d="M92.505 8.52c-8.423-1.867-30.489-3.15-38.632-5.932-20.148-6.86-40.155-.216-44.462 21.52-1.524 7.749-3.443 25.115-6.187 32.508-7.622 20.39-1.93 42.404 19.208 48.273 7.419 2.071 27.313 4.802 34.744 6.809 21.24 5.704 42.76 2.63 46.381-15.383 1.562-7.737 4.306-33.563 7.05-40.956 7.648-20.352 4.662-41.795-18.102-46.838z"/>
    <path fill="url(#paint1_linear)" d="M57.799 87.55c18.943 0 34.3-15.357 34.3-34.3 0-18.943-15.357-34.3-34.3-34.3-18.943 0-34.3 15.357-34.3 34.3 0 18.943 15.357 34.3 34.3 34.3z"/>
    <path fill="url(#paint2_linear)" d="M57.799 83.738c16.838 0 30.488-13.65 30.488-30.488 0-16.839-13.65-30.489-30.488-30.489-16.839 0-30.489 13.65-30.489 30.489 0 16.838 13.65 30.488 30.489 30.488z"/>
    <path fill="url(#paint3_linear)" d="M97.18 32.911H33.662c-.701 0-1.27.57-1.27 1.27v33.03c0 .701.569 1.27 1.27 1.27H97.18c.701 0 1.27-.569 1.27-1.27V34.18c0-.7-.569-1.27-1.27-1.27z"/>
    <path fill="url(#paint4_linear)" d="M41.284 36.735h48.274c0 1.348.535 2.64 1.488 3.593.953.953 2.245 1.489 3.593 1.489v17.785c-1.348 0-2.64.535-3.593 1.488-.953.953-1.489 2.245-1.489 3.593H41.285c0-1.348-.535-2.64-1.488-3.593-.953-.953-2.246-1.489-3.593-1.489V41.818c1.347 0 2.64-.536 3.593-1.489.953-.953 1.488-2.245 1.488-3.593z"/>
    <path fill="url(#paint5_linear)" d="M65.42 60.86c5.614 0 10.164-4.55 10.164-10.164 0-5.612-4.55-10.163-10.163-10.163s-10.163 4.55-10.163 10.163 4.55 10.163 10.163 10.163z"/>
    <path fill="url(#paint6_linear)" d="M65.42 58.954c4.561 0 8.258-3.697 8.258-8.258 0-4.56-3.697-8.257-8.257-8.257s-8.257 3.697-8.257 8.257 3.697 8.258 8.257 8.258z"/>
    <path fill="url(#paint7_linear)" d="M73.255 29.21L28.81 16.491c-1.484-.424-3.031.434-3.456 1.918L17.3 46.561c-.425 1.484.434 3.031 1.918 3.456L63.66 62.736c1.483.424 3.03-.434 3.455-1.918l8.057-28.152c.424-1.484-.434-3.03-1.918-3.456z"/>
    <path fill="url(#paint8_linear)" d="M73.819 37.367L24 23.111l-2.541 8.878 49.818 14.257 2.54-8.879z"/>
    <path fill="#F0F8FD" d="M48.004 47.025h-.178l-7.838-2.248c-.083-.024-.161-.063-.23-.117-.068-.053-.124-.12-.167-.195-.042-.076-.07-.159-.08-.245-.01-.086-.003-.173.02-.256.023-.084.063-.162.116-.23.054-.068.12-.125.196-.168.075-.042.158-.07.244-.08.086-.01.173-.003.257.02l7.838 2.249c.162.047.298.156.38.304.08.148.1.322.052.483-.032.138-.11.26-.22.349-.111.087-.248.135-.39.134zM35.77 43.519c-.054.012-.11.012-.165 0l-10.543-3.01c-.084-.024-.162-.064-.23-.117-.068-.054-.125-.12-.167-.196-.043-.075-.07-.158-.08-.244-.01-.086-.004-.173.02-.257.023-.083.062-.161.116-.23.053-.068.12-.125.195-.167.076-.042.159-.07.245-.08.086-.01.173-.004.256.02l10.532 3.01c.168.024.32.114.423.25.102.135.146.306.123.475-.024.168-.113.32-.25.423-.135.102-.306.146-.474.123z"/>
    <path fill="#A5B1C2" d="M40.166 48.956h-.177l-16.197-4.637c-.169-.047-.312-.16-.398-.312-.085-.152-.107-.332-.06-.5.047-.17.16-.312.312-.398.152-.086.333-.107.501-.06l16.197 4.637c.169.023.32.113.423.248.103.136.147.307.123.476-.023.168-.113.32-.248.423-.136.102-.307.147-.476.123z"/>
    <path fill="url(#paint9_linear)" d="M85.111 55.142c2.456 0 4.447-1.99 4.447-4.446 0-2.455-1.991-4.446-4.447-4.446-2.455 0-4.446 1.99-4.446 4.446 0 2.456 1.99 4.447 4.446 4.447z"/>
    <path fill="url(#paint10_linear)" d="M85.111 53.237c1.403 0 2.541-1.138 2.541-2.54 0-1.404-1.138-2.541-2.54-2.541-1.404 0-2.541 1.137-2.541 2.54 0 1.404 1.137 2.541 2.54 2.541z"/>
    <path fill="url(#paint11_linear)" d="M76.333 68.494h-14.94c-.484-4.815-.636-9.658-.456-14.495.113-1.239-.191-2.48-.866-3.526-.675-1.045-1.68-1.834-2.856-2.241-.815-.271-1.683-.344-2.53-.212-.85.132-1.654.464-2.347.97-.694.506-1.257 1.17-1.641 1.938-.385.767-.58 1.616-.571 2.474.441 4.322.623 8.665.546 13.008-.376 3.44-1.38 6.78-2.96 9.859-3.633 6.084-3.519 13.554-.254 21.443h18.573c5.348-5.107 11.573-14.482 10.302-29.218z"/>
    <path fill="url(#paint12_linear)" d="M67.707 75.392c.514-1.074.792-2.245.814-3.435.022-1.19-.212-2.371-.687-3.463h-6.44c.419 4.662.889 5.424 1.804 7.114.233.403.573.735.982.958.41.223.872.33 1.338.307.466-.022.916-.172 1.303-.433.386-.262.692-.624.886-1.048z"/>
    <path fill="#409EFF" d="M23.842 71.162h-1.905v-1.906c0-.168-.067-.33-.186-.449-.12-.12-.28-.186-.45-.186-.168 0-.33.067-.448.186-.12.12-.187.28-.187.45v1.905h-1.905c-.169 0-.33.067-.45.186-.118.119-.185.28-.185.449 0 .168.067.33.186.449.119.12.28.186.449.186h1.905v1.906c0 .168.067.33.186.449.12.119.281.186.45.186.168 0 .33-.067.449-.186.119-.12.186-.281.186-.45v-1.905h1.905c.169 0 .33-.067.45-.186.119-.12.185-.28.185-.45 0-.168-.066-.33-.186-.448-.119-.12-.28-.186-.449-.186zM35.275 86.406H33.37V84.5c0-.168-.067-.33-.186-.449-.12-.119-.28-.186-.45-.186-.168 0-.33.067-.448.186-.12.12-.187.28-.187.45v1.905h-1.905c-.168 0-.33.067-.45.186-.118.119-.185.28-.185.449 0 .169.067.33.186.45.119.118.28.185.449.185h1.905v1.906c0 .168.068.33.187.449s.28.186.449.186c.168 0 .33-.067.449-.186.119-.12.186-.28.186-.45v-1.905h1.905c.169 0 .33-.067.45-.186.119-.119.186-.28.186-.449 0-.168-.067-.33-.186-.45-.12-.118-.281-.185-.45-.185zM91.17 80.054h-1.905V78.15c0-.169-.067-.33-.186-.45-.119-.119-.28-.186-.449-.186-.168 0-.33.067-.449.186-.119.12-.186.281-.186.45v1.905h-1.906c-.168 0-.33.067-.449.186-.119.12-.186.28-.186.45 0 .168.067.33.186.448.12.12.281.186.45.186h1.905v1.906c0 .168.067.33.186.45.12.118.28.185.45.185.168 0 .33-.067.448-.186.12-.119.186-.28.186-.449v-1.906h1.906c.168 0 .33-.067.45-.186.118-.119.185-.28.185-.449 0-.168-.067-.33-.186-.449s-.28-.186-.45-.186z"/>
    <defs>
        <linearGradient id="paint0_linear" x1="56385.1" x2="66679.6" y1="48104" y2="48104" gradientUnits="userSpaceOnUse">
            <stop stop-color="#F2F8FC"/>
            <stop offset="1" stop-color="#FFEFF6"/>
        </linearGradient>
        <linearGradient id="paint1_linear" x1="17704.2" x2="21408.5" y1="19361.1" y2="19361.1" gradientUnits="userSpaceOnUse">
            <stop stop-color="#8E9AB2"/>
            <stop offset=".3" stop-color="#92A4B5"/>
            <stop offset=".526" stop-color="#A0A7B3"/>
            <stop offset=".6" stop-color="#9EA7BD"/>
            <stop offset=".89" stop-color="#B2BECA"/>
            <stop offset="1" stop-color="#BBCFD0"/>
        </linearGradient>
        <linearGradient id="paint2_linear" x1="15926.4" x2="18853.3" y1="17215.8" y2="17215.8" gradientUnits="userSpaceOnUse">
            <stop stop-color="#8E98B2"/>
            <stop offset=".02" stop-color="#92A0B5"/>
            <stop offset=".16" stop-color="#A4B0C1"/>
            <stop offset=".33" stop-color="#B1BBCA"/>
            <stop offset=".55" stop-color="#B9BFCF"/>
            <stop offset="1" stop-color="#BBC2D0"/>
        </linearGradient>
        <linearGradient id="paint3_linear" x1="17520.6" x2="20955.7" y1="9990.68" y2="9990.68" gradientUnits="userSpaceOnUse">
            <stop stop-color="#183663"/>
            <stop offset="1" stop-color="#4C6882"/>
        </linearGradient>
        <linearGradient id="paint4_linear" x1="30505.4" x2="33193.4" y1="11657.1" y2="11657.1" gradientUnits="userSpaceOnUse">
            <stop stop-color="#48A7FF"/>
            <stop offset="1" stop-color="#70B8ED"/>
        </linearGradient>
        <linearGradient id="paint5_linear" x1="5802.12" x2="6127.33" y1="5730.69" y2="5730.69" gradientUnits="userSpaceOnUse">
            <stop stop-color="#8EA9B2"/>
            <stop offset="1" stop-color="#BBC8D0"/>
        </linearGradient>
        <linearGradient id="paint6_linear" x1="4751.26" x2="4965.95" y1="4665.69" y2="4665.69" gradientUnits="userSpaceOnUse">
            <stop stop-color="#F2F7FC"/>
            <stop offset="1" stop-color="#FFEFF6"/>
        </linearGradient>
        <linearGradient id="paint7_linear" x1="26261.2" x2="28630.8" y1="14217.2" y2="14217.2" gradientUnits="userSpaceOnUse">
            <stop stop-color="#324C73"/>
            <stop offset="1" stop-color="#6778A3"/>
        </linearGradient>
        <linearGradient id="paint8_linear" x1="26437.3" x2="28572.7" y1="3753.75" y2="3753.74" gradientUnits="userSpaceOnUse">
            <stop stop-color="#183F63"/>
            <stop offset="1" stop-color="#4C6582"/>
        </linearGradient>
        <linearGradient id="paint9_linear" x1="2772.77" x2="2835.01" y1="2535.69" y2="2535.69" gradientUnits="userSpaceOnUse">
            <stop stop-color="#8E98B2"/>
            <stop offset="1" stop-color="#BBC3D0"/>
        </linearGradient>
        <linearGradient id="paint10_linear" x1="1628.54" x2="1648.86" y1="1470.69" y2="1470.69" gradientUnits="userSpaceOnUse">
            <stop stop-color="#F2F7FC"/>
            <stop offset="1" stop-color="#FFEFF6"/>
        </linearGradient>
        <linearGradient id="paint11_linear" x1="38.691" x2="68.044" y1="41.743" y2="108.175" gradientUnits="userSpaceOnUse">
            <stop stop-color="#409EFF"/>
            <stop offset="1" stop-color="#1C97FE"/>
        </linearGradient>
        <linearGradient id="paint12_linear" x1="3919.59" x2="3959.72" y1="3698.67" y2="3698.67" gradientUnits="userSpaceOnUse">
            <stop stop-color="#8E98B2"/>
            <stop offset="1" stop-color="#8BC5FB"/>
        </linearGradient>
    </defs>
</svg>
