<svg xmlns="http://www.w3.org/2000/svg" width="189" height="58" fill="none" viewBox="0 0 189 58">
    <g clip-path="url(#clip0)">
        <path fill="#0E7CD7" d="M1.9.001C.85.001 0 .909 0 2.029v53.943C0 57.091.85 58 1.9 58h5.408c1.05 0 1.9-.908 1.9-2.029V43.722c0-1.12.85-2.028 1.9-2.028h4.211c.188-.181.812-.902.665-2.454-.12-1.26-.7-2.419-1.594-3.253-2.066-1.926-4.19-4.08-3.88-8.756.051-.764.196-1.518.425-2.244.636-2.006 1.03-3.964-.437-5.077-.296-.226-.64-.373-.998-.44-1.684-.312-2.85-.612-4.035-3.3-.067-.152-.094-.322-.076-.489l.004-.033c.043-.407.267-.766.597-.976.498-.318 1.282-1.007 1.698-2.352.32-1.034.929-1.941 1.768-2.561.735-.542 1.402-.865 2.054-.81.31.024.569-.245.544-.575-.113-1.514-.283-3.255-.346-3.88-.159-1.109.527-.62.945-.24.184.24.427.437.645.639.415.382.836.755 1.257 1.13 1.477 1.315 3.027 2.539 4.434 3.943 1.477 1.474 2.535 2.987 3.31 4.968.242.62.48 1.248.757 1.854.621 1.36 1.442 2.615 2.561 3.559.402.34.835.635 1.29.887.251.138.509.264.77.376.253.109.56.276.83.31 5.053.63 8.738 1.484 10.043 4.675v.029c.507-1.858.76-3.797.76-5.819 0-2.873-.51-5.567-1.532-8.082-1.022-2.514-2.402-4.711-4.138-6.59-1.737-1.878-3.78-3.37-6.13-4.476C25.16.552 22.655 0 20 0L1.9.001zM61.587 56.745c6.37 0 11.895-3.38 14.625-8.45l-4.81-2.795c-1.82 3.38-5.395 5.655-9.815 5.655-6.5 0-11.44-5.005-11.44-11.505 0-6.565 4.94-11.57 11.44-11.57 4.355 0 7.995 2.275 9.62 5.72l4.745-2.73c-2.47-5.135-7.93-8.515-14.365-8.515-9.815 0-17.095 7.475-17.095 17.095s7.28 17.095 17.095 17.095zm36.393-34.19c-4.55 0-8.125 1.69-10.53 5.525V10.4h-5.655v45.5h5.655V38.675c0-7.67 4.225-10.725 9.425-10.725 5.005 0 8.06 2.99 8.06 8.32V55.9h5.655V35.945c0-8.32-5.005-13.39-12.61-13.39zm47.415.845v5.59c-2.6-3.965-6.76-6.435-12.285-6.435-9.035 0-16.445 7.475-16.445 17.095s7.41 17.095 16.445 17.095c5.525 0 9.685-2.47 12.285-6.435v5.59h5.655V23.4h-5.655zm-11.57 27.885c-6.5 0-11.505-5.005-11.505-11.635s5.005-11.635 11.505-11.635c6.565 0 11.57 5.005 11.57 11.635s-5.005 11.635-11.57 11.635zm30.604-19.11c0-2.925 2.86-4.355 5.785-4.355 2.86 0 5.72 1.235 6.955 4.16l4.745-2.665c-2.08-4.225-6.37-6.76-11.7-6.76-6.565 0-11.505 3.965-11.505 9.685 0 11.765 18.2 7.8 18.2 14.755 0 3.185-2.99 4.42-6.435 4.42-4.03 0-7.02-1.95-8.06-5.07l-4.875 2.795c1.885 4.485 6.435 7.605 12.935 7.605 6.955 0 12.155-3.705 12.155-9.75 0-11.96-18.2-7.865-18.2-14.82z"/>
    </g>
    <defs>
        <clipPath id="clip0">
            <path fill="#fff" d="M0 0H189V58H0z"/>
        </clipPath>
    </defs>
</svg>
