<?xml version="1.0" encoding="UTF-8" standalone="no"?>
<svg
   xmlns:dc="http://purl.org/dc/elements/1.1/"
   xmlns:cc="http://creativecommons.org/ns#"
   xmlns:rdf="http://www.w3.org/1999/02/22-rdf-syntax-ns#"
   xmlns:svg="http://www.w3.org/2000/svg"
   xmlns="http://www.w3.org/2000/svg"
   viewBox="0 0 703.64222 357.15741"
   height="357.15741"
   width="703.64221"
   xml:space="preserve"
   id="svg2"
   version="1.1"><metadata
     id="metadata8"><rdf:RDF><cc:Work
         rdf:about=""><dc:format>image/svg+xml</dc:format><dc:type
           rdf:resource="http://purl.org/dc/dcmitype/StillImage" /><dc:title></dc:title></cc:Work></rdf:RDF></metadata><defs
     id="defs6"><clipPath
       id="clipPath20"
       clipPathUnits="userSpaceOnUse"><path
         id="path18"
         d="M 0,500 H 500 V 0 H 0 Z" /></clipPath><clipPath
       id="clipPath32"
       clipPathUnits="userSpaceOnUse"><path
         id="path30"
         d="m 160.223,363.733 17.391,-94.149 100.532,0.807 v -4.36 c 0,-15.269 12.396,-27.666 27.666,-27.666 v 0 c 15.27,0 27.667,12.397 27.667,27.666 v 0 4.806 l 0.126,0.001 v 92.895 z" /></clipPath><clipPath
       id="clipPath40"
       clipPathUnits="userSpaceOnUse"><path
         id="path38"
         d="M 105.464,376.393 H 392.902 V 308.1 H 105.464 Z" /></clipPath><clipPath
       id="clipPath54"
       clipPathUnits="userSpaceOnUse"><path
         id="path52"
         d="M 0,500 H 500 V 0 H 0 Z" /></clipPath><clipPath
       id="clipPath66"
       clipPathUnits="userSpaceOnUse"><path
         id="path64"
         d="m 159.748,363.733 -18.305,-91.126 80.867,-0.948 v -5.463 c 0,-15.361 12.47,-27.831 27.831,-27.831 v 0 c 15.359,0 27.829,12.47 27.829,27.831 v 0 4.811 h 0.005 v 37.409 l -13.868,55.317 z" /></clipPath><clipPath
       id="clipPath74"
       clipPathUnits="userSpaceOnUse"><path
         id="path72"
         d="M 105.464,376.393 H 392.902 V 308.1 H 105.464 Z" /></clipPath><clipPath
       id="clipPath88"
       clipPathUnits="userSpaceOnUse"><path
         id="path86"
         d="M 0,500 H 500 V 0 H 0 Z" /></clipPath><clipPath
       id="clipPath100"
       clipPathUnits="userSpaceOnUse"><path
         id="path98"
         d="m 165.587,363.733 -43.627,-78.21 44.566,-6.374 c -0.104,-0.98 -0.157,-1.975 -0.157,-2.984 v 0 -9.887 c 0,-15.406 12.507,-27.913 27.913,-27.913 v 0 c 15.405,0 27.912,12.507 27.912,27.913 v 0 9.887 c 0,0.831 -0.036,1.652 -0.107,2.464 v 0 29.562 l 14.27,55.734 z" /></clipPath><clipPath
       id="clipPath108"
       clipPathUnits="userSpaceOnUse"><path
         id="path106"
         d="M 105.464,376.393 H 392.902 V 308.1 H 105.464 Z" /></clipPath><clipPath
       id="clipPath122"
       clipPathUnits="userSpaceOnUse"><path
         id="path120"
         d="M 0,500 H 500 V 0 H 0 Z" /></clipPath><clipPath
       id="clipPath134"
       clipPathUnits="userSpaceOnUse"><path
         id="path132"
         d="m 111,308.476 v -37.302 h 0.085 v -5.192 c 0,-15.242 12.375,-27.617 27.618,-27.617 v 0 c 15.242,0 27.617,12.375 27.617,27.617 v 0 10.478 c 0,0.361 -0.007,0.721 -0.021,1.079 v 0 l 0.178,31.284 28.33,55.065 -35.571,0.199 z" /></clipPath><clipPath
       id="clipPath142"
       clipPathUnits="userSpaceOnUse"><path
         id="path140"
         d="M 105.464,376.393 H 392.902 V 308.1 H 105.464 Z" /></clipPath><clipPath
       id="clipPath156"
       clipPathUnits="userSpaceOnUse"><path
         id="path154"
         d="M 0,500 H 500 V 0 H 0 Z" /></clipPath><clipPath
       id="clipPath168"
       clipPathUnits="userSpaceOnUse"><path
         id="path166"
         d="m 305.121,363.888 28.331,-55.065 0.143,-37.782 0.039,-0.003 v -4.99 c 0,-15.279 12.404,-27.683 27.683,-27.683 v 0 c 15.278,0 27.683,12.404 27.683,27.683 v 0 10.347 c 0,0.676 -0.024,1.347 -0.071,2.01 v 0 30.071 l -48.238,55.611 z" /></clipPath><clipPath
       id="clipPath176"
       clipPathUnits="userSpaceOnUse"><path
         id="path174"
         d="M 105.635,376.393 H 392.148 V 308.1 H 105.635 Z" /></clipPath><filter
       id="filter5106"
       style="color-interpolation-filters:sRGB"><feFlood
         id="feFlood5096"
         result="flood"
         flood-color="rgb(0,0,0)"
         flood-opacity="0.498039" /><feComposite
         id="feComposite5098"
         result="composite1"
         operator="in"
         in2="SourceGraphic"
         in="flood" /><feGaussianBlur
         id="feGaussianBlur5100"
         result="blur"
         stdDeviation="4.1"
         in="composite1" /><feOffset
         id="feOffset5102"
         result="offset"
         dy="-5.1"
         dx="1.38778e-16" /><feComposite
         id="feComposite5104"
         result="composite2"
         operator="over"
         in2="offset"
         in="SourceGraphic" /></filter></defs><g
     transform="matrix(1.3333333,0,0,-1.3333333,19.577121,588.41704)"
     id="g10"><g
       transform="matrix(1.5299869,0,0,1.6172268,-132.06374,-189.7224)"
       style="stroke-width:0.63572705;filter:url(#filter5106)"
       id="g4720"><g
         style="stroke-width:0.63572705"
         id="g14"><g
           style="stroke-width:0.63572705"
           id="g16"
           clip-path="url(#clipPath20)"><g
             style="stroke-width:0.63572705"
             id="g22"
             transform="translate(278.1461,270.3913)"><path
               d="m 0,0 -100.532,-0.807 -17.39,94.149 H 55.459 V 0.446 H 55.333 V -4.36 c 0,-15.27 -12.396,-27.666 -27.667,-27.666 C 12.396,-32.026 0,-19.63 0,-4.36 Z"
               style="fill:#ffffff;fill-opacity:1;fill-rule:evenodd;stroke:none;stroke-width:0.63572705"
               id="path24" /></g></g></g><g
         style="stroke-width:0.63572705"
         id="g26"><g
           style="stroke-width:0.63572705"
           id="g28"
           clip-path="url(#clipPath32)"><g
             style="stroke-width:0.63572705"
             id="g34"><g
               style="stroke-width:0.63572705"
               id="g36" /><g
               style="stroke-width:0.63572705"
               id="g46"><g
                 clip-path="url(#clipPath40)"
                 id="g44"
                 style="opacity:0.07929993;stroke-width:0.63572705"><path
                   d="m 105.464,308.1 h 287.438 v 68.293 H 105.464 Z"
                   style="fill:#323a4c;fill-opacity:1;fill-rule:evenodd;stroke:none;stroke-width:0.63572705"
                   id="path42" /></g></g></g></g></g><g
         style="stroke-width:0.63572705"
         id="g48"><g
           style="stroke-width:0.63572705"
           id="g50"
           clip-path="url(#clipPath54)"><g
             style="stroke-width:0.63572705"
             id="g56"
             transform="translate(264.1071,363.7336)"><path
               d="m 0,0 13.868,-55.318 v -37.409 h -0.005 v -4.811 c 0,-15.36 -12.47,-27.831 -27.83,-27.831 -15.36,0 -27.83,12.471 -27.83,27.831 v 5.463 l -80.867,0.949 L -104.359,0 Z"
               style="fill:#d44d43;fill-opacity:1;fill-rule:evenodd;stroke:none;stroke-width:0.63572705"
               id="path58" /></g></g></g><g
         style="stroke-width:0.63572705"
         id="g60"><g
           style="stroke-width:0.63572705"
           id="g62"
           clip-path="url(#clipPath66)"><g
             style="stroke-width:0.63572705"
             id="g68"><g
               style="stroke-width:0.63572705"
               id="g70" /><g
               style="stroke-width:0.63572705"
               id="g80"><g
                 clip-path="url(#clipPath74)"
                 id="g78"
                 style="opacity:0.07929993;stroke-width:0.63572705"><path
                   d="m 105.464,308.1 h 287.438 v 68.293 H 105.464 Z"
                   style="fill:#323a4c;fill-opacity:1;fill-rule:evenodd;stroke:none;stroke-width:0.63572705"
                   id="path76" /></g></g></g></g></g><g
         style="stroke-width:0.63572705"
         id="g82"><g
           style="stroke-width:0.63572705"
           id="g84"
           clip-path="url(#clipPath88)"><g
             style="stroke-width:0.63572705"
             id="g90"
             transform="translate(166.5265,279.1491)"><path
               d="M 0,0 -44.566,6.375 -0.939,84.584 69.831,84.775 55.56,29.042 V -0.52 c 0.071,-0.812 0.107,-1.633 0.107,-2.464 v -9.888 c 0,-15.405 -12.506,-27.912 -27.912,-27.912 -15.406,0 -27.913,12.507 -27.913,27.912 v 9.888 c 0,1.008 0.054,2.005 0.158,2.984"
               style="fill:#ffffff;fill-opacity:1;fill-rule:evenodd;stroke:none;stroke-width:0.63572705"
               id="path92" /></g></g></g><g
         style="stroke-width:0.63572705"
         id="g94"><g
           style="stroke-width:0.63572705"
           id="g96"
           clip-path="url(#clipPath100)"><g
             style="stroke-width:0.63572705"
             id="g102"><g
               style="stroke-width:0.63572705"
               id="g104" /><g
               style="stroke-width:0.63572705"
               id="g114"><g
                 clip-path="url(#clipPath108)"
                 id="g112"
                 style="opacity:0.07929993;stroke-width:0.63572705"><path
                   d="m 105.464,308.1 h 287.438 v 68.293 H 105.464 Z"
                   style="fill:#323a4c;fill-opacity:1;fill-rule:evenodd;stroke:none;stroke-width:0.63572705"
                   id="path110" /></g></g></g></g></g><g
         style="stroke-width:0.63572705"
         id="g116"><g
           style="stroke-width:0.63572705"
           id="g118"
           clip-path="url(#clipPath122)"><g
             style="stroke-width:0.63572705"
             id="g124"
             transform="translate(111.0856,271.1735)"><path
               d="M 0,0 H -0.085 V 37.302 L 48.151,92.914 83.721,92.715 55.391,37.65 55.213,6.366 C 55.228,6.008 55.234,5.648 55.234,5.287 V -5.191 C 55.234,-20.434 42.86,-32.809 27.618,-32.809 12.375,-32.809 0,-20.434 0,-5.191 Z"
               style="fill:#d44d43;fill-opacity:1;fill-rule:evenodd;stroke:none;stroke-width:0.63572705"
               id="path126" /></g></g></g><g
         style="stroke-width:0.63572705"
         id="g128"><g
           style="stroke-width:0.63572705"
           id="g130"
           clip-path="url(#clipPath134)"><g
             style="stroke-width:0.63572705"
             id="g136"><g
               style="stroke-width:0.63572705"
               id="g138" /><g
               style="stroke-width:0.63572705"
               id="g148"><g
                 clip-path="url(#clipPath142)"
                 id="g146"
                 style="opacity:0.07929993;stroke-width:0.63572705"><path
                   d="m 105.464,308.1 h 287.438 v 68.293 H 105.464 Z"
                   style="fill:#323a4c;fill-opacity:1;fill-rule:evenodd;stroke:none;stroke-width:0.63572705"
                   id="path144" /></g></g></g></g></g><g
         style="stroke-width:0.63572705"
         id="g150"><g
           style="stroke-width:0.63572705"
           id="g152"
           clip-path="url(#clipPath156)"><g
             style="stroke-width:0.63572705"
             id="g158"
             transform="translate(333.6344,271.0378)"><path
               d="M 0,0 -0.039,0.003 -0.183,37.786 -28.514,92.851 7.057,93.049 55.294,37.438 V 7.368 c 0.048,-0.664 0.071,-1.334 0.071,-2.01 V -4.99 c 0,-15.279 -12.404,-27.683 -27.682,-27.683 C 12.404,-32.673 0,-20.269 0,-4.99 Z"
               style="fill:#d44d43;fill-opacity:1;fill-rule:evenodd;stroke:none;stroke-width:0.63572705"
               id="path160" /></g></g></g><g
         style="stroke-width:0.63572705"
         id="g162"><g
           style="stroke-width:0.63572705"
           id="g164"
           clip-path="url(#clipPath168)"><g
             style="stroke-width:0.63572705"
             id="g170"><g
               style="stroke-width:0.63572705"
               id="g172" /><g
               style="stroke-width:0.63572705"
               id="g182"><g
                 clip-path="url(#clipPath176)"
                 id="g180"
                 style="opacity:0.07929993;stroke-width:0.63572705"><path
                   d="m 105.635,308.1 h 286.513 v 68.293 H 105.635 Z"
                   style="fill:#323a4c;fill-opacity:1;fill-rule:evenodd;stroke:none;stroke-width:0.63572705"
                   id="path178" /></g></g></g></g></g></g></g></svg>