<svg xmlns="http://www.w3.org/2000/svg" width="36" height="36" fill="none" viewBox="0 0 36 36">
    <path fill="#fff" d="M3 16.618c.075 3.507.285 9.505.315 10.167.107 1.414.648 2.844 1.491 3.852 1.173 1.414 2.618 2.046 4.632 2.046 2.784.015 5.853.015 8.834.015 2.992 0 5.896 0 8.349-.015 1.986 0 3.475-.648 4.633-2.046.843-1.008 1.385-2.453 1.461-3.852.03-.557.18-7.068.27-10.167H3z" opacity=".4"/>
    <path fill="#fff" d="M16.868 23.076v1.941c0 .621.504 1.125 1.125 1.125s1.125-.504 1.125-1.125v-1.94c0-.622-.504-1.126-1.125-1.126-.62 0-1.125.504-1.125 1.125z"/>
    <path fill="#fff" d="M19.93 3c2.251 0 4.098 1.694 4.38 3.872h2.965c3.149 0 5.71 2.562 5.71 5.712v5.2c0 .377-.19.73-.504.938-3.093 2.048-6.765 3.411-10.617 3.944-.052.007-.103.01-.154.01-.509 0-.963-.343-1.09-.847-.303-1.194-1.388-2.03-2.635-2.03-1.262 0-2.335.818-2.668 2.036-.15.544-.674.892-1.24.817-3.827-.534-7.484-1.891-10.571-3.93-.317-.207-.506-.56-.506-.939v-5.199c0-3.15 2.568-5.712 5.726-5.712h2.95c.283-2.178 2.127-3.871 4.38-3.871h3.873zm0 2.25h-3.873c-1.01 0-1.853.69-2.105 1.622h8.08c-.252-.931-1.095-1.621-2.102-1.621z"/>
</svg>
