<?xml version="1.0" encoding="UTF-8" standalone="no"?>
<svg
   xmlns:dc="http://purl.org/dc/elements/1.1/"
   xmlns:cc="http://creativecommons.org/ns#"
   xmlns:rdf="http://www.w3.org/1999/02/22-rdf-syntax-ns#"
   xmlns:svg="http://www.w3.org/2000/svg"
   xmlns="http://www.w3.org/2000/svg"
   xmlns:xlink="http://www.w3.org/1999/xlink"
   id="svg4745"
   version="1.1"
   viewBox="0 0 242.35022 211.54382"
   height="211.54382mm"
   width="242.35022mm">
  <defs
     id="defs4739">
    <clipPath
       id="gridRectMaskzps85qeog">
      <rect
         style="opacity:1;fill:#ffffff;stroke:none;stroke-width:0;stroke-dasharray:none"
         id="SvgjsRect1959"
         width="312"
         height="145"
         x="-3"
         y="-1"
         rx="0"
         ry="0" />
    </clipPath>
    <linearGradient
       gradientUnits="userSpaceOnUse"
       y2="186.83755"
       x2="181.647"
       y1="-7.2422476"
       x1="169.9353"
       id="linearGradient5188"
       xlink:href="#linearGradient5186" />
    <linearGradient
       id="linearGradient5186">
      <stop
         id="stop5182"
         offset="0"
         style="stop-color:#008ffb;stop-opacity:1;" />
      <stop
         id="stop5184"
         offset="1"
         style="stop-color:#008ffb;stop-opacity:0;" />
    </linearGradient>
    <clipPath
       id="clipPath5306">
      <rect
         style="opacity:1;fill:#ffffff;stroke:none;stroke-width:0;stroke-dasharray:none"
         id="rect5304"
         width="312"
         height="145"
         x="-3"
         y="-1"
         rx="0"
         ry="0" />
    </clipPath>
    <linearGradient
       gradientUnits="userSpaceOnUse"
       y2="149.07326"
       x2="179.49588"
       y1="-4.1350589"
       x1="163.00388"
       id="linearGradient5180"
       xlink:href="#linearGradient5178" />
    <linearGradient
       id="linearGradient5178">
      <stop
         id="stop5174"
         offset="0"
         style="stop-color:#00e396;stop-opacity:1;" />
      <stop
         id="stop5176"
         offset="1"
         style="stop-color:#00e396;stop-opacity:0;" />
    </linearGradient>
    <clipPath
       id="clipPath5314">
      <rect
         style="opacity:1;fill:#ffffff;stroke:none;stroke-width:0;stroke-dasharray:none"
         id="rect5312"
         width="312"
         height="145"
         x="-3"
         y="-1"
         rx="0"
         ry="0" />
    </clipPath>
  </defs>
  <metadata
     id="metadata4742">
    <rdf:RDF>
      <cc:Work
         rdf:about="">
        <dc:format>image/svg+xml</dc:format>
        <dc:type
           rdf:resource="http://purl.org/dc/dcmitype/StillImage" />
        <dc:title></dc:title>
      </cc:Work>
    </rdf:RDF>
  </metadata>
  <g
     transform="translate(186.87323,-47.809018)"
     id="layer1">
    <g
       transform="translate(-173.04571,785.93223)"
       id="g5383">
      <g
         style="opacity:0.51499999"
         id="g5317"
         transform="translate(-18.718821,60.457262)">
        <rect
           style="opacity:1;vector-effect:none;fill:#008ffc;fill-opacity:0.57254902;fill-rule:nonzero;stroke:none;stroke-width:0.46499997;stroke-linecap:round;stroke-linejoin:round;stroke-miterlimit:4;stroke-dasharray:none;stroke-dashoffset:0;stroke-opacity:1;paint-order:fill markers stroke"
           id="rect5301"
           width="57.168293"
           height="12.647852"
           x="13.153767"
           y="-713.31042"
           ry="1.6442207"
           rx="1.6442207" />
        <g
           id="g5311"
           transform="translate(-2.7163361,0.45678124)">
          <text
             id="text5305"
             y="-706.86005"
             x="36.552292"
             style="font-style:normal;font-weight:normal;font-size:10.58333302px;line-height:1.25;font-family:sans-serif;letter-spacing:0px;word-spacing:0px;fill:#000000;fill-opacity:1;stroke:none;stroke-width:0.26458332"
             xml:space="preserve"><tspan
               style="font-style:normal;font-variant:normal;font-weight:300;font-stretch:normal;font-size:3.17499995px;font-family:IRANSansWeb;-inkscape-font-specification:'IRANSansWeb, Light';font-variant-ligatures:normal;font-variant-caps:normal;font-variant-numeric:normal;font-feature-settings:normal;text-align:start;writing-mode:lr-tb;text-anchor:start;stroke-width:0.26458332"
               y="-706.86005"
               x="36.552292"
               id="tspan5303">فاکتور           پرداخت شد</tspan></text>
          <text
             id="text5309"
             y="-706.42383"
             x="52.306862"
             style="font-style:normal;font-weight:normal;font-size:2.87079978px;line-height:1.25;font-family:sans-serif;letter-spacing:0px;word-spacing:0px;fill:#000000;fill-opacity:1;stroke:none;stroke-width:0.26458332"
             xml:space="preserve"><tspan
               style="stroke-width:0.26458332"
               y="-706.42383"
               x="52.306862"
               id="tspan5307">#231</tspan></text>
        </g>
        <text
           xml:space="preserve"
           style="font-style:normal;font-variant:normal;font-weight:300;font-stretch:normal;font-size:2.64583325px;line-height:1.25;font-family:IRANSansWeb;-inkscape-font-specification:'IRANSansWeb, Light';font-variant-ligatures:normal;font-variant-caps:normal;font-variant-numeric:normal;font-feature-settings:normal;text-align:start;letter-spacing:0px;word-spacing:0px;writing-mode:lr-tb;text-anchor:start;fill:#1a1a1a;fill-opacity:1;stroke:none;stroke-width:0.26458332"
           x="17.959951"
           y="-702.81274"
           id="text5315"><tspan
             id="tspan5313"
             x="17.959951"
             y="-702.81274"
             style="font-style:normal;font-variant:normal;font-weight:300;font-stretch:normal;font-size:2.64583325px;font-family:IRANSansWeb;-inkscape-font-specification:'IRANSansWeb, Light';font-variant-ligatures:normal;font-variant-caps:normal;font-variant-numeric:normal;font-feature-settings:normal;text-align:start;writing-mode:lr-tb;text-anchor:start;fill:#1a1a1a;stroke-width:0.26458332">____</tspan></text>
      </g>
      <g
         style="fill:#0055d4;fill-opacity:1;stroke-width:15.62567425"
         id="g5363"
         transform="matrix(0.0225768,0,0,-0.0225768,-5.3943222,-641.79355)">
        <path
           id="path5359"
           style="fill:#0055d4;fill-opacity:1;fill-rule:nonzero;stroke:none;stroke-width:15.62567425"
           d="m 151.6348,345.5205 h -17.339 c -1.559,0 -2.7,-1.523 -2.203,-3.001 1.524,-4.543 5.815,-7.817 10.873,-7.817 5.056,0 9.348,3.274 10.873,7.817 0.495,1.478 -0.645,3.001 -2.204,3.001" />
        <path
           id="path5361"
           style="fill:#0055d4;fill-opacity:1;fill-rule:nonzero;stroke:none;stroke-width:15.62567425"
           d="m 186.2349,358.9185 -11.773,9.628 v 27.8 c 0,14.836 -10.356,27.363 -24.194,30.729 v 3.352 c 0,4.053 -3.317,7.369 -7.369,7.369 -4.053,0 -7.37,-3.316 -7.37,-7.369 v -3.323 c -13.899,-3.322 -24.317,-15.879 -24.317,-30.758 v -27.696 h -0.055 l -10.652,-9.956 c -2.294,-3.166 0.229,-7.36 4.425,-7.36 h 12.177 51.46 13.415 c 4.335,0 6.826,4.442 4.253,7.584" />
      </g>
    </g>
    <path
       style="opacity:0.83399999;fill:url(#linearGradient5180);fill-opacity:1;stroke-width:0;stroke-linecap:butt;stroke-dasharray:none;stroke-opacity:1"
       pathFrom="M -1 143L -1 143L 34 143L 68 143L 102 143L 136 143L 170 143L 204 143L 238 143L 272 143L 306 143"
       pathTo="M 0 143L 0 125.84C 11.899999999999999 125.84 22.1 125.83999999999999 34 125.83999999999999C 45.9 125.83999999999999 56.1 91.52000000000001 68 91.52000000000001C 79.9 91.52000000000001 90.1 97.24 102 97.24C 113.9 97.24 124.1 25.740000000000002 136 25.740000000000002C 147.9 25.740000000000002 158.1 42.89999999999999 170 42.89999999999999C 181.9 42.89999999999999 192.1 5.719999999999999 204 5.719999999999999C 215.9 5.719999999999999 226.1 97.24 238 97.24C 249.9 97.24 260.1 77.22 272 77.22C 283.9 77.22 294.1 108.68 306 108.68C 306 108.68 306 108.68 306 143M 306 108.68z"
       clip-path="url(#gridRectMaskzps85qeog)"
       index="1"
       class="apexcharts-area"
       d="M 46.867718,126.11378 C 54.387218,117.35278 56.1,91.52 68,91.52 c 11.9,0 22.1,5.72 34,5.72 11.9,0 22.1,-71.5 34,-71.5 11.9,0 22.1,17.16 34,17.16 11.9,0 22.1,-37.18 34,-37.18 11.9,0 22.1,91.52 34,91.52 11.9,0 22.1,-20.02 34,-20.02 11.9,0 22.1,31.46 34,31.46 V 143"
       id="SvgjsPath1978"
       transform="matrix(0.92393855,0,0,0.92393855,-230.02002,127.22963)" />
    <path
       pathFrom="M -1 143L -1 143L 34 143L 68 143L 102 143L 136 143L 170 143L 204 143L 238 143L 272 143L 306 143"
       pathTo="M 0 131.56C 11.899999999999999 131.56 22.1 134.42 34 134.42C 45.9 134.42 56.1 114.4 68 114.4C 79.9 114.4 90.1 117.25999999999999 102 117.25999999999999C 113.9 117.25999999999999 124.1 60.06 136 60.06C 147.9 60.06 158.1 88.66 170 88.66C 181.9 88.66 192.1 71.5 204 71.5C 215.9 71.5 226.1 117.25999999999999 238 117.25999999999999C 249.9 117.25999999999999 260.1 108.68 272 108.68C 283.9 108.68 294.1 122.98 306 122.98"
       clip-path="url(#gridRectMaskzps85qeog)"
       index="0"
       class="apexcharts-area"
       d="M 46.867718,126.11378 C 58.767718,126.11378 56.1,114.4 68,114.4 c 11.9,0 22.1,2.86 34,2.86 11.9,0 22.1,-57.2 34,-57.2 11.9,0 22.1,28.6 34,28.6 11.9,0 22.1,-17.16 34,-17.16 11.9,0 22.1,45.76 34,45.76 11.9,0 22.1,-8.58 34,-8.58 11.9,0 38.52687,17.03781 50.42687,17.03781"
       id="SvgjsPath1970"
       style="opacity:1;fill:url(#linearGradient5188);fill-opacity:1;stroke:#008ffb;stroke-width:0.57272929;stroke-linecap:butt;stroke-dasharray:none;stroke-opacity:1"
       transform="matrix(0.92393855,0,0,0.92393855,-230.02002,127.22963)" />
    <path
       pathFrom="M -1 143L -1 143L 34 143L 68 143L 102 143L 136 143L 170 143L 204 143L 238 143L 272 143L 306 143"
       pathTo="M 0 125.84C 11.899999999999999 125.84 22.1 125.83999999999999 34 125.83999999999999C 45.9 125.83999999999999 56.1 91.52000000000001 68 91.52000000000001C 79.9 91.52000000000001 90.1 97.24 102 97.24C 113.9 97.24 124.1 25.740000000000002 136 25.740000000000002C 147.9 25.740000000000002 158.1 42.89999999999999 170 42.89999999999999C 181.9 42.89999999999999 192.1 5.719999999999999 204 5.719999999999999C 215.9 5.719999999999999 226.1 97.24 238 97.24C 249.9 97.24 260.1 77.22 272 77.22C 283.9 77.22 294.1 108.68 306 108.68"
       clip-path="url(#gridRectMaskzps85qeog)"
       index="1"
       class="apexcharts-area"
       d="M 46.867718,126.11378 C 52.490585,122.00511 55.959145,91.427804 68,91.52 c 11.899651,0.09112 22.1,5.72 34,5.72 11.9,0 22.1,-71.5 34,-71.5 11.9,0 22.1,17.16 34,17.16 11.9,0 22.1,-37.18 34,-37.18 11.9,0 22.1,91.52 34,91.52 11.9,0 22.1,-20.02 34,-20.02 11.9,0 22.1,31.46 34,31.46"
       id="SvgjsPath1979"
       style="opacity:1;fill:none;fill-opacity:1;stroke:#00e396;stroke-width:0.57272929;stroke-linecap:butt;stroke-dasharray:none;stroke-opacity:1"
       transform="matrix(0.92393855,0,0,0.92393855,-230.02002,127.22963)" />
    <g
       transform="translate(-149.35466,770.73181)"
       id="g5411">
      <g
         id="g5263"
         style="opacity:0.51499999"
         transform="translate(48.17805,-9.6123675)">
        <rect
           ry="1.6442207"
           y="-713.31042"
           x="13.153767"
           height="12.647852"
           width="57.168293"
           id="rect5235"
           style="opacity:1;vector-effect:none;fill:#008ffc;fill-opacity:0.57254902;fill-rule:nonzero;stroke:none;stroke-width:0.46499997;stroke-linecap:round;stroke-linejoin:round;stroke-miterlimit:4;stroke-dasharray:none;stroke-dashoffset:0;stroke-opacity:1;paint-order:fill markers stroke"
           rx="1.6442207" />
        <g
           transform="translate(-2.7163361,0.45678124)"
           id="g5249">
          <text
             xml:space="preserve"
             style="font-style:normal;font-weight:normal;font-size:10.58333302px;line-height:1.25;font-family:sans-serif;letter-spacing:0px;word-spacing:0px;fill:#000000;fill-opacity:1;stroke:none;stroke-width:0.26458332"
             x="36.552292"
             y="-706.86005"
             id="text5239"><tspan
               id="tspan5237"
               x="36.552292"
               y="-706.86005"
               style="font-style:normal;font-variant:normal;font-weight:300;font-stretch:normal;font-size:3.17499995px;font-family:IRANSansWeb;-inkscape-font-specification:'IRANSansWeb, Light';font-variant-ligatures:normal;font-variant-caps:normal;font-variant-numeric:normal;font-feature-settings:normal;text-align:start;writing-mode:lr-tb;text-anchor:start;stroke-width:0.26458332">فاکتور           پرداخت شد</tspan></text>
          <text
             xml:space="preserve"
             style="font-style:normal;font-weight:normal;font-size:2.87079978px;line-height:1.25;font-family:sans-serif;letter-spacing:0px;word-spacing:0px;fill:#000000;fill-opacity:1;stroke:none;stroke-width:0.26458332"
             x="52.306862"
             y="-706.42383"
             id="text5243"><tspan
               id="tspan5241"
               x="52.306862"
               y="-706.42383"
               style="stroke-width:0.26458332">#231</tspan></text>
        </g>
        <text
           id="text5253"
           y="-702.81274"
           x="17.959951"
           style="font-style:normal;font-variant:normal;font-weight:300;font-stretch:normal;font-size:2.64583325px;line-height:1.25;font-family:IRANSansWeb;-inkscape-font-specification:'IRANSansWeb, Light';font-variant-ligatures:normal;font-variant-caps:normal;font-variant-numeric:normal;font-feature-settings:normal;text-align:start;letter-spacing:0px;word-spacing:0px;writing-mode:lr-tb;text-anchor:start;fill:#1a1a1a;fill-opacity:1;stroke:none;stroke-width:0.26458332"
           xml:space="preserve"><tspan
             style="font-style:normal;font-variant:normal;font-weight:300;font-stretch:normal;font-size:2.64583325px;font-family:IRANSansWeb;-inkscape-font-specification:'IRANSansWeb, Light';font-variant-ligatures:normal;font-variant-caps:normal;font-variant-numeric:normal;font-feature-settings:normal;text-align:start;writing-mode:lr-tb;text-anchor:start;fill:#1a1a1a;stroke-width:0.26458332"
             y="-702.81274"
             x="17.959951"
             id="tspan5251">____</tspan></text>
      </g>
      <g
         transform="matrix(0.0225768,0,0,-0.0225768,60.352695,-712.06065)"
         id="g4788"
         style="fill:#0055d4;fill-opacity:1;stroke-width:15.62567425">
        <path
           d="m 151.6348,345.5205 h -17.339 c -1.559,0 -2.7,-1.523 -2.203,-3.001 1.524,-4.543 5.815,-7.817 10.873,-7.817 5.056,0 9.348,3.274 10.873,7.817 0.495,1.478 -0.645,3.001 -2.204,3.001"
           style="fill:#0055d4;fill-opacity:1;fill-rule:nonzero;stroke:none;stroke-width:15.62567425"
           id="path24" />
        <path
           d="m 186.2349,358.9185 -11.773,9.628 v 27.8 c 0,14.836 -10.356,27.363 -24.194,30.729 v 3.352 c 0,4.053 -3.317,7.369 -7.369,7.369 -4.053,0 -7.37,-3.316 -7.37,-7.369 v -3.323 c -13.899,-3.322 -24.317,-15.879 -24.317,-30.758 v -27.696 h -0.055 l -10.652,-9.956 c -2.294,-3.166 0.229,-7.36 4.425,-7.36 h 12.177 51.46 13.415 c 4.335,0 6.826,4.442 4.253,7.584"
           style="fill:#0055d4;fill-opacity:1;fill-rule:nonzero;stroke:none;stroke-width:15.62567425"
           id="path28" />
      </g>
    </g>
    <g
       transform="translate(-195.42985,782.67473)"
       id="g5397">
      <g
         id="g5335"
         transform="translate(12.394895,-1.7706993)">
        <rect
           style="opacity:0.51499999;vector-effect:none;fill:#ffaaaa;fill-opacity:0.57254902;fill-rule:nonzero;stroke:none;stroke-width:0.46499997;stroke-linecap:round;stroke-linejoin:round;stroke-miterlimit:4;stroke-dasharray:none;stroke-dashoffset:0;stroke-opacity:1;paint-order:fill markers stroke"
           id="rect5265"
           width="57.168293"
           height="12.647852"
           x="13.153767"
           y="-695.42365"
           ry="1.6442207"
           rx="1.6442207" />
        <g
           id="g5275"
           transform="translate(-2.7163361,18.343545)">
          <text
             id="text5269"
             y="-706.86005"
             x="21.348543"
             style="font-style:normal;font-weight:normal;font-size:10.58333302px;line-height:1.25;font-family:sans-serif;letter-spacing:0px;word-spacing:0px;fill:#000000;fill-opacity:1;stroke:none;stroke-width:0.26458332"
             xml:space="preserve"><tspan
               style="font-style:normal;font-variant:normal;font-weight:300;font-stretch:normal;font-size:3.17499995px;font-family:IRANSansWeb;-inkscape-font-specification:'IRANSansWeb, Light';font-variant-ligatures:normal;font-variant-caps:normal;font-variant-numeric:normal;font-feature-settings:normal;text-align:start;writing-mode:lr-tb;text-anchor:start;stroke-width:0.26458332"
               y="-706.86005"
               x="21.348543"
               id="tspan5267">موجودی شلوار لی ترک رو به اتمام است</tspan></text>
          <text
             id="text5273"
             y="-706.42383"
             x="52.306862"
             style="font-style:normal;font-weight:normal;font-size:2.87079978px;line-height:1.25;font-family:sans-serif;letter-spacing:0px;word-spacing:0px;fill:#000000;fill-opacity:1;stroke:none;stroke-width:0.26458332"
             xml:space="preserve"><tspan
               style="stroke-width:0.26458332"
               y="-703.88385"
               x="52.306862"
               id="tspan5271" /></text>
        </g>
        <text
           xml:space="preserve"
           style="font-style:normal;font-variant:normal;font-weight:300;font-stretch:normal;font-size:2.64583325px;line-height:1.25;font-family:IRANSansWeb;-inkscape-font-specification:'IRANSansWeb, Light';font-variant-ligatures:normal;font-variant-caps:normal;font-variant-numeric:normal;font-feature-settings:normal;text-align:start;letter-spacing:0px;word-spacing:0px;writing-mode:lr-tb;text-anchor:start;fill:#1a1a1a;fill-opacity:1;stroke:none;stroke-width:0.26458332"
           x="17.959951"
           y="-684.92596"
           id="text5279"><tspan
             id="tspan5277"
             x="17.959951"
             y="-684.92596"
             style="font-style:normal;font-variant:normal;font-weight:300;font-stretch:normal;font-size:2.64583325px;font-family:IRANSansWeb;-inkscape-font-specification:'IRANSansWeb, Light';font-variant-ligatures:normal;font-variant-caps:normal;font-variant-numeric:normal;font-feature-settings:normal;text-align:start;writing-mode:lr-tb;text-anchor:start;fill:#1a1a1a;stroke-width:0.26458332">____</tspan></text>
      </g>
      <g
         style="fill:#0055d4;fill-opacity:1;stroke-width:15.62567425"
         id="g5351"
         transform="matrix(0.0225768,0,0,-0.0225768,24.579132,-686.04964)">
        <path
           id="path5347"
           style="fill:#0055d4;fill-opacity:1;fill-rule:nonzero;stroke:none;stroke-width:15.62567425"
           d="m 151.6348,345.5205 h -17.339 c -1.559,0 -2.7,-1.523 -2.203,-3.001 1.524,-4.543 5.815,-7.817 10.873,-7.817 5.056,0 9.348,3.274 10.873,7.817 0.495,1.478 -0.645,3.001 -2.204,3.001" />
        <path
           id="path5349"
           style="fill:#0055d4;fill-opacity:1;fill-rule:nonzero;stroke:none;stroke-width:15.62567425"
           d="m 186.2349,358.9185 -11.773,9.628 v 27.8 c 0,14.836 -10.356,27.363 -24.194,30.729 v 3.352 c 0,4.053 -3.317,7.369 -7.369,7.369 -4.053,0 -7.37,-3.316 -7.37,-7.369 v -3.323 c -13.899,-3.322 -24.317,-15.879 -24.317,-30.758 v -27.696 h -0.055 l -10.652,-9.956 c -2.294,-3.166 0.229,-7.36 4.425,-7.36 h 12.177 51.46 13.415 c 4.335,0 6.826,4.442 4.253,7.584" />
      </g>
    </g>
    <g
       transform="translate(-201.96408,783.15222)"
       id="g5425">
      <g
         transform="translate(54.375761,37.919939)"
         id="g5299"
         style="opacity:0.51499999">
        <rect
           rx="1.6442207"
           ry="1.6442207"
           y="-713.31042"
           x="13.153767"
           height="12.647852"
           width="57.168293"
           id="rect5283"
           style="opacity:1;vector-effect:none;fill:#008ffc;fill-opacity:0.57254902;fill-rule:nonzero;stroke:none;stroke-width:0.46499997;stroke-linecap:round;stroke-linejoin:round;stroke-miterlimit:4;stroke-dasharray:none;stroke-dashoffset:0;stroke-opacity:1;paint-order:fill markers stroke" />
        <g
           transform="translate(-2.7163361,0.45678124)"
           id="g5293">
          <text
             xml:space="preserve"
             style="font-style:normal;font-weight:normal;font-size:10.58333302px;line-height:1.25;font-family:sans-serif;letter-spacing:0px;word-spacing:0px;fill:#000000;fill-opacity:1;stroke:none;stroke-width:0.26458332"
             x="36.552292"
             y="-706.86005"
             id="text5287"><tspan
               id="tspan5285"
               x="36.552292"
               y="-706.86005"
               style="font-style:normal;font-variant:normal;font-weight:300;font-stretch:normal;font-size:3.17499995px;font-family:IRANSansWeb;-inkscape-font-specification:'IRANSansWeb, Light';font-variant-ligatures:normal;font-variant-caps:normal;font-variant-numeric:normal;font-feature-settings:normal;text-align:start;writing-mode:lr-tb;text-anchor:start;stroke-width:0.26458332">فاکتور           پرداخت شد</tspan></text>
          <text
             xml:space="preserve"
             style="font-style:normal;font-weight:normal;font-size:2.87079978px;line-height:1.25;font-family:sans-serif;letter-spacing:0px;word-spacing:0px;fill:#000000;fill-opacity:1;stroke:none;stroke-width:0.26458332"
             x="52.306862"
             y="-706.42383"
             id="text5291"><tspan
               id="tspan5289"
               x="52.306862"
               y="-706.42383"
               style="stroke-width:0.26458332">#231</tspan></text>
        </g>
        <text
           id="text5297"
           y="-702.81274"
           x="17.959951"
           style="font-style:normal;font-variant:normal;font-weight:300;font-stretch:normal;font-size:2.64583325px;line-height:1.25;font-family:IRANSansWeb;-inkscape-font-specification:'IRANSansWeb, Light';font-variant-ligatures:normal;font-variant-caps:normal;font-variant-numeric:normal;font-feature-settings:normal;text-align:start;letter-spacing:0px;word-spacing:0px;writing-mode:lr-tb;text-anchor:start;fill:#1a1a1a;fill-opacity:1;stroke:none;stroke-width:0.26458332"
           xml:space="preserve"><tspan
             style="font-style:normal;font-variant:normal;font-weight:300;font-stretch:normal;font-size:2.64583325px;font-family:IRANSansWeb;-inkscape-font-specification:'IRANSansWeb, Light';font-variant-ligatures:normal;font-variant-caps:normal;font-variant-numeric:normal;font-feature-settings:normal;text-align:start;writing-mode:lr-tb;text-anchor:start;fill:#1a1a1a;stroke-width:0.26458332"
             y="-702.81274"
             x="17.959951"
             id="tspan5295">____</tspan></text>
      </g>
      <g
         transform="matrix(0.0225768,0,0,-0.0225768,66.768142,-664.20178)"
         id="g5357"
         style="fill:#0055d4;fill-opacity:1;stroke-width:15.62567425">
        <path
           d="m 151.6348,345.5205 h -17.339 c -1.559,0 -2.7,-1.523 -2.203,-3.001 1.524,-4.543 5.815,-7.817 10.873,-7.817 5.056,0 9.348,3.274 10.873,7.817 0.495,1.478 -0.645,3.001 -2.204,3.001"
           style="fill:#0055d4;fill-opacity:1;fill-rule:nonzero;stroke:none;stroke-width:15.62567425"
           id="path5353" />
        <path
           d="m 186.2349,358.9185 -11.773,9.628 v 27.8 c 0,14.836 -10.356,27.363 -24.194,30.729 v 3.352 c 0,4.053 -3.317,7.369 -7.369,7.369 -4.053,0 -7.37,-3.316 -7.37,-7.369 v -3.323 c -13.899,-3.322 -24.317,-15.879 -24.317,-30.758 v -27.696 h -0.055 l -10.652,-9.956 c -2.294,-3.166 0.229,-7.36 4.425,-7.36 h 12.177 51.46 13.415 c 4.335,0 6.826,4.442 4.253,7.584"
           style="fill:#0055d4;fill-opacity:1;fill-rule:nonzero;stroke:none;stroke-width:15.62567425"
           id="path5355" />
      </g>
    </g>
  </g>
</svg>
