<?xml version="1.0" encoding="UTF-8" standalone="no"?>
<!-- Created with Inkscape (http://www.inkscape.org/) -->

<svg
   xmlns:dc="http://purl.org/dc/elements/1.1/"
   xmlns:cc="http://creativecommons.org/ns#"
   xmlns:rdf="http://www.w3.org/1999/02/22-rdf-syntax-ns#"
   xmlns:svg="http://www.w3.org/2000/svg"
   xmlns="http://www.w3.org/2000/svg"
   xmlns:sodipodi="http://sodipodi.sourceforge.net/DTD/sodipodi-0.dtd"
   xmlns:inkscape="http://www.inkscape.org/namespaces/inkscape"
   width="300"
   height="300"
   viewBox="0 0 79.374995 79.375002"
   version="1.1"
   id="svg8"
   inkscape:version="0.92.1 r15371"
   sodipodi:docname="crm.svg">
  <defs
     id="defs2">
    <inkscape:perspective
       sodipodi:type="inkscape:persp3d"
       inkscape:vp_x="87.621318 : 336.48678 : 1"
       inkscape:vp_y="0 : -1000 : 0"
       inkscape:vp_z="8.2463228 : 336.48678 : 1"
       inkscape:persp3d-origin="47.933821 : 349.71594 : 1"
       id="perspective4684" />
  </defs>
  <sodipodi:namedview
     id="base"
     pagecolor="#ffffff"
     bordercolor="#666666"
     borderopacity="1.0"
     inkscape:pageopacity="0.0"
     inkscape:pageshadow="2"
     inkscape:zoom="2.0919231"
     inkscape:cx="68.171506"
     inkscape:cy="170.09593"
     inkscape:document-units="mm"
     inkscape:current-layer="layer1"
     showgrid="false"
     units="px"
     inkscape:window-width="1920"
     inkscape:window-height="1016"
     inkscape:window-x="0"
     inkscape:window-y="27"
     inkscape:window-maximized="1"
     inkscape:snap-global="false" />
  <metadata
     id="metadata5">
    <rdf:RDF>
      <cc:Work
         rdf:about="">
        <dc:format>image/svg+xml</dc:format>
        <dc:type
           rdf:resource="http://purl.org/dc/dcmitype/StillImage" />
        <dc:title></dc:title>
      </cc:Work>
    </rdf:RDF>
  </metadata>
  <g
     inkscape:label="Layer 1"
     inkscape:groupmode="layer"
     id="layer1"
     transform="translate(0,-217.62498)">
    <g
       id="g4776"
       transform="matrix(1.6966125,0,0,1.6966125,125.95047,-155.91538)"
       style="stroke-width:0.58940977">
      <g
         style="opacity:0.23900003;stroke-width:0.58940977"
         transform="translate(0.71547056)"
         id="g4763">
        <path
           sodipodi:nodetypes="ccaaccaacc"
           inkscape:connector-curvature="0"
           id="path4757"
           d="m -61.888203,239.00215 h 5.992067 c 0.808838,7.78518 -3.935384,16.65012 1.525514,21.12445 1.874561,1.5359 5.585151,0.88289 7.212761,-0.91262 4.52663,-4.99359 -0.276701,-13.36185 0.562842,-20.21188 h 5.857915 c 0,0 4.082613,18.49408 -1.743959,24.01298 -4.145413,3.92652 -12.869951,4.11868 -17.126575,0.31302 -6.071458,-5.42824 -2.280565,-24.326 -2.280565,-24.326 z"
           style="fill:#ff2a2a;stroke:none;stroke-width:0.155948px;stroke-linecap:butt;stroke-linejoin:miter;stroke-opacity:1" />
        <path
           sodipodi:nodetypes="cccccc"
           inkscape:connector-curvature="0"
           id="path4759"
           d="m -61.888203,239.0021 6.09268,0.0224 c 0.03685,1.77246 0.01063,3.45429 -0.190053,5.15362 l -6.662817,0.0112 c 0.239012,-1.73644 0.351012,-3.47913 0.760185,-5.18721 z"
           style="fill:#cccccc;stroke:none;stroke-width:0.155948px;stroke-linecap:butt;stroke-linejoin:miter;stroke-opacity:1" />
        <path
           style="fill:#cccccc;stroke:none;stroke-width:0.155948px;stroke-linecap:butt;stroke-linejoin:miter;stroke-opacity:1"
           d="m -40.605326,239.0021 -6.09268,0.0224 c -0.03685,1.77246 -0.01063,3.45429 0.190053,5.15362 l 6.662817,0.0112 c -0.239012,-1.73644 -0.351012,-3.47913 -0.760185,-5.18721 z"
           id="path4761"
           inkscape:connector-curvature="0"
           sodipodi:nodetypes="cccccc" />
      </g>
      <g
         id="g4755"
         style="stroke-width:0.58940977">
        <path
           style="fill:#ff2a2a;stroke:none;stroke-width:0.155948px;stroke-linecap:butt;stroke-linejoin:miter;stroke-opacity:1"
           d="m -61.888203,239.00215 h 5.992067 c 0.808838,7.78518 -3.935384,16.65012 1.525514,21.12445 1.874561,1.5359 5.585151,0.88289 7.212761,-0.91262 4.52663,-4.99359 -0.276701,-13.36185 0.562842,-20.21188 h 5.857915 c 0,0 4.082613,18.49408 -1.743959,24.01298 -4.145413,3.92652 -12.869951,4.11868 -17.126575,0.31302 -6.071458,-5.42824 -2.280565,-24.326 -2.280565,-24.326 z"
           id="path4746"
           inkscape:connector-curvature="0"
           sodipodi:nodetypes="ccaaccaacc" />
        <path
           style="fill:#cccccc;stroke:none;stroke-width:0.155948px;stroke-linecap:butt;stroke-linejoin:miter;stroke-opacity:1"
           d="m -61.888203,239.0021 6.09268,0.0224 c 0.03685,1.77246 0.01063,3.45429 -0.190053,5.15362 l -6.662817,0.0112 c 0.239012,-1.73644 0.351012,-3.47913 0.760185,-5.18721 z"
           id="path4748"
           inkscape:connector-curvature="0"
           sodipodi:nodetypes="cccccc" />
        <path
           sodipodi:nodetypes="cccccc"
           inkscape:connector-curvature="0"
           id="path4750"
           d="m -40.605326,239.0021 -6.09268,0.0224 c -0.03685,1.77246 -0.01063,3.45429 0.190053,5.15362 l 6.662817,0.0112 c -0.239012,-1.73644 -0.351012,-3.47913 -0.760185,-5.18721 z"
           style="fill:#cccccc;stroke:none;stroke-width:0.155948px;stroke-linecap:butt;stroke-linejoin:miter;stroke-opacity:1" />
      </g>
      <path
         inkscape:connector-curvature="0"
         id="path4765"
         d="m -52.22935,235.46951 6.170933,-6.17093 h -5.455463 l 4.764157,-8.25176 -9.682859,9.68286 h 5.455307 z"
         style="fill:#ffdd55;stroke:none;stroke-width:0.155948px;stroke-linecap:butt;stroke-linejoin:miter;stroke-opacity:1" />
    </g>
  </g>
</svg>
