<svg xmlns="http://www.w3.org/2000/svg" width="64" height="64" fill="none" viewBox="0 0 64 64">
    <path fill="#00DC7D" d="M63.403 22.491L42.95 42.945 32 31.996l10.945-10.945L32 10.106l9.51-9.51C41.89.216 42.41 0 42.95 0c.54 0 1.057.215 1.44.597L63.403 19.61c.382.382.597.9.597 1.44 0 .54-.215 1.058-.597 1.44z"/>
    <path fill="#409EFF" d="M42.945 21.05L31.996 32 21.051 21.055 10.106 32l-9.51-9.509c-.381-.382-.596-.9-.596-1.44 0-.54.215-1.058.597-1.44L19.61.597c.382-.382.9-.597 1.44-.597.54 0 1.058.215 1.44.597L42.945 21.05z"/>
    <path fill="#FFD600" d="M21.055 42.95L32 53.893l-9.509 9.51c-.382.381-.9.596-1.44.596-.54 0-1.058-.215-1.44-.597L.597 44.39C.215 44.007 0 43.49 0 42.95c0-.54.215-1.058.597-1.44L21.05 21.055 32 32.005 21.054 42.948z"/>
    <path fill="#E20338" d="M63.403 44.39L44.39 63.402c-.382.382-.9.597-1.44.597-.54 0-1.058-.215-1.44-.597L21.055 42.95 32.005 32l10.944 10.945L53.894 32l9.51 9.509c.381.382.596.9.596 1.44 0 .54-.215 1.058-.597 1.44z"/>
</svg>
